Roman_opsz12.ufo
<glyph name="exclam" format="2">
  <advance width="271"/>
  <unicode hex="0021"/>
  <outline>
    <contour>
      <point x="184.0" y="668" type="line"/>
      <point x="184.0" y="700"/>
      <point x="157.0" y="715"/>
      <point x="136.0" y="715" type="curve" smooth="yes"/>
      <point x="115.0" y="715"/>
      <point x="84.0" y="701"/>
      <point x="87.0" y="659" type="curve" smooth="yes"/>
      <point x="123.0" y="201" type="line" smooth="yes"/>
      <point x="124.0" y="184"/>
      <point x="126.0" y="180"/>
      <point x="135.0" y="180" type="curve" smooth="yes"/>
      <point x="145.0" y="180"/>
      <point x="147.0" y="183"/>
      <point x="148.0" y="201" type="curve" smooth="yes"/>
    </contour>
    <contour>
      <point x="184.0" y="49" type="curve" smooth="yes"/>
      <point x="184.0" y="75"/>
      <point x="162.0" y="97"/>
      <point x="136.0" y="97" type="curve" smooth="yes"/>
      <point x="108.0" y="97"/>
      <point x="87.0" y="75"/>
      <point x="87.0" y="48" type="curve" smooth="yes"/>
      <point x="87.0" y="22"/>
      <point x="109.0" y="0"/>
      <point x="135.0" y="0" type="curve" smooth="yes"/>
      <point x="163.0" y="0"/>
      <point x="184.0" y="22"/>
    </contour>
  </outline>
</glyph>
<glyph name="numbersign" format="2">
  <advance width="815"/>
  <unicode hex="0023"/>
  <outline>
    <contour>
      <point x="510" y="138" type="line"/>
      <point x="729" y="138" type="line" smooth="yes"/>
      <point x="743" y="138"/>
      <point x="761" y="138"/>
      <point x="761" y="156" type="curve" smooth="yes"/>
      <point x="761" y="175"/>
      <point x="744" y="175"/>
      <point x="729" y="175" type="curve" smooth="yes"/>
      <point x="520" y="175" type="line"/>
      <point x="559" y="324" type="line"/>
      <point x="729" y="324" type="line" smooth="yes"/>
      <point x="743" y="324"/>
      <point x="761" y="324"/>
      <point x="761" y="342" type="curve" smooth="yes"/>
      <point x="761" y="361"/>
      <point x="744" y="361"/>
      <point x="729" y="361" type="curve" smooth="yes"/>
      <point x="570" y="361" type="line"/>
      <point x="648" y="657" type="line" smooth="yes"/>
      <point x="652" y="671"/>
      <point x="652" y="674"/>
      <point x="652" y="675" type="curve" smooth="yes"/>
      <point x="652" y="686"/>
      <point x="644" y="694"/>
      <point x="633" y="694" type="curve" smooth="yes"/>
      <point x="619" y="694"/>
      <point x="616" y="681"/>
      <point x="613" y="671" type="curve" smooth="yes"/>
      <point x="531" y="361" type="line"/>
      <point x="344" y="361" type="line"/>
      <point x="422" y="657" type="line" smooth="yes"/>
      <point x="426" y="671"/>
      <point x="426" y="674"/>
      <point x="426" y="675" type="curve" smooth="yes"/>
      <point x="426" y="686"/>
      <point x="418" y="694"/>
      <point x="407" y="694" type="curve" smooth="yes"/>
      <point x="393" y="694"/>
      <point x="390" y="681"/>
      <point x="387" y="671" type="curve" smooth="yes"/>
      <point x="305" y="361" type="line"/>
      <point x="86" y="361" type="line" smooth="yes"/>
      <point x="72" y="361"/>
      <point x="54" y="361"/>
      <point x="54" y="343" type="curve" smooth="yes"/>
      <point x="54" y="324"/>
      <point x="71" y="324"/>
      <point x="86" y="324" type="curve" smooth="yes"/>
      <point x="295" y="324" type="line"/>
      <point x="256" y="175" type="line"/>
      <point x="86" y="175" type="line" smooth="yes"/>
      <point x="72" y="175"/>
      <point x="54" y="175"/>
      <point x="54" y="157" type="curve" smooth="yes"/>
      <point x="54" y="138"/>
      <point x="71" y="138"/>
      <point x="86" y="138" type="curve" smooth="yes"/>
      <point x="245" y="138" type="line"/>
      <point x="167" y="-157" type="line" smooth="yes"/>
      <point x="163" y="-171"/>
      <point x="163" y="-174"/>
      <point x="163" y="-175" type="curve" smooth="yes"/>
      <point x="163" y="-186"/>
      <point x="171" y="-194"/>
      <point x="182" y="-194" type="curve" smooth="yes"/>
      <point x="196" y="-194"/>
      <point x="199" y="-181"/>
      <point x="202" y="-171" type="curve" smooth="yes"/>
      <point x="284" y="138" type="line"/>
      <point x="471" y="138" type="line"/>
      <point x="393" y="-157" type="line" smooth="yes"/>
      <point x="389" y="-171"/>
      <point x="389" y="-174"/>
      <point x="389" y="-175" type="curve" smooth="yes"/>
      <point x="389" y="-186"/>
      <point x="397" y="-194"/>
      <point x="408" y="-194" type="curve" smooth="yes"/>
      <point x="422" y="-194"/>
      <point x="425" y="-181"/>
      <point x="428" y="-171" type="curve" smooth="yes"/>
    </contour>
    <contour>
      <point x="294" y="175" type="line"/>
      <point x="333" y="324" type="line"/>
      <point x="521" y="324" type="line"/>
      <point x="482" y="175" type="line"/>
    </contour>
  </outline>
</glyph>
<glyph name="percent" format="2">
  <advance width="815"/>
  <unicode hex="0025"/>
  <outline>
    <contour>
      <point x="671" y="714" type="line" smooth="yes"/>
      <point x="677" y="723"/>
      <point x="679" y="726"/>
      <point x="679" y="731" type="curve" smooth="yes"/>
      <point x="679" y="744"/>
      <point x="669" y="750"/>
      <point x="661" y="750" type="curve" smooth="yes"/>
      <point x="651" y="750"/>
      <point x="648" y="745"/>
      <point x="640" y="735" type="curve" smooth="yes"/>
      <point x="576" y="649"/>
      <point x="491" y="641"/>
      <point x="453" y="641" type="curve" smooth="yes"/>
      <point x="434" y="641"/>
      <point x="348" y="641"/>
      <point x="267" y="719" type="curve" smooth="yes"/>
      <point x="246" y="740"/>
      <point x="224" y="750"/>
      <point x="198" y="750" type="curve" smooth="yes"/>
      <point x="125" y="750"/>
      <point x="54" y="667"/>
      <point x="54" y="549" type="curve" smooth="yes"/>
      <point x="54" y="427"/>
      <point x="126" y="347"/>
      <point x="198" y="347" type="curve" smooth="yes"/>
      <point x="270" y="347"/>
      <point x="326" y="437"/>
      <point x="326" y="548" type="curve" smooth="yes"/>
      <point x="326" y="577"/>
      <point x="324" y="614"/>
      <point x="304" y="664" type="curve"/>
      <point x="369" y="626"/>
      <point x="425" y="621"/>
      <point x="454" y="621" type="curve" smooth="yes"/>
      <point x="481" y="621"/>
      <point x="536" y="626"/>
      <point x="589" y="659" type="curve"/>
      <point x="590" y="658" type="line"/>
      <point x="144" y="-20" type="line" smooth="yes"/>
      <point x="138" y="-29"/>
      <point x="136" y="-32"/>
      <point x="136" y="-37" type="curve" smooth="yes"/>
      <point x="136" y="-48"/>
      <point x="145" y="-56"/>
      <point x="155" y="-56" type="curve" smooth="yes"/>
      <point x="164" y="-56"/>
      <point x="169" y="-49"/>
      <point x="174" y="-42" type="curve" smooth="yes"/>
    </contour>
    <contour>
      <point x="199" y="367" type="curve" smooth="yes"/>
      <point x="185" y="367"/>
      <point x="112" y="374"/>
      <point x="112" y="548" type="curve" smooth="yes"/>
      <point x="112" y="724"/>
      <point x="184" y="730"/>
      <point x="199" y="730" type="curve" smooth="yes"/>
      <point x="254" y="730"/>
      <point x="304" y="652"/>
      <point x="304" y="549" type="curve" smooth="yes"/>
      <point x="304" y="443"/>
      <point x="253" y="367"/>
    </contour>
    <contour>
      <point x="634" y="-36" type="curve" smooth="yes"/>
      <point x="620" y="-36"/>
      <point x="547" y="-29"/>
      <point x="547" y="145" type="curve" smooth="yes"/>
      <point x="547" y="321"/>
      <point x="619" y="327"/>
      <point x="634" y="327" type="curve" smooth="yes"/>
      <point x="689" y="327"/>
      <point x="739" y="249"/>
      <point x="739" y="146" type="curve" smooth="yes"/>
      <point x="739" y="40"/>
      <point x="688" y="-36"/>
    </contour>
    <contour>
      <point x="761" y="145" type="curve" smooth="yes"/>
      <point x="761" y="260"/>
      <point x="704" y="347"/>
      <point x="633" y="347" type="curve" smooth="yes"/>
      <point x="560" y="347"/>
      <point x="489" y="264"/>
      <point x="489" y="146" type="curve" smooth="yes"/>
      <point x="489" y="24"/>
      <point x="561" y="-56"/>
      <point x="633" y="-56" type="curve" smooth="yes"/>
      <point x="705" y="-56"/>
      <point x="761" y="34"/>
    </contour>
  </outline>
</glyph>
<glyph name="four" format="2">
  <advance width="489"/>
  <unicode hex="0034"/>
  <outline>
    <contour>
      <point x="361" y="651" type="line" smooth="yes"/>
      <point x="361" y="670"/>
      <point x="361" y="675"/>
      <point x="347" y="675" type="curve" smooth="yes"/>
      <point x="339" y="675"/>
      <point x="336" y="675"/>
      <point x="328" y="663" type="curve" smooth="yes"/>
      <point x="27" y="196" type="line"/>
      <point x="27" y="167" type="line"/>
      <point x="290" y="167" type="line"/>
      <point x="290" y="76" type="line" smooth="yes"/>
      <point x="290" y="39"/>
      <point x="288" y="29"/>
      <point x="215" y="29" type="curve" smooth="yes"/>
      <point x="195" y="29" type="line"/>
      <point x="195" y="0" type="line"/>
      <point x="218" y="2"/>
      <point x="297" y="2"/>
      <point x="325" y="2" type="curve" smooth="yes"/>
      <point x="353" y="2"/>
      <point x="433" y="2"/>
      <point x="456" y="0" type="curve"/>
      <point x="456" y="29" type="line"/>
      <point x="436" y="29" type="line" smooth="yes"/>
      <point x="364" y="29"/>
      <point x="361" y="39"/>
      <point x="361" y="76" type="curve" smooth="yes"/>
      <point x="361" y="167" type="line"/>
      <point x="462" y="167" type="line"/>
      <point x="462" y="196" type="line"/>
      <point x="361" y="196" type="line"/>
    </contour>
    <contour>
      <point x="295" y="573" type="line"/>
      <point x="295" y="196" type="line"/>
      <point x="52" y="196" type="line"/>
    </contour>
  </outline>
</glyph>
<glyph name="six" format="2">
  <advance width="489"/>
  <unicode hex="0036"/>
  <outline>
    <contour>
      <point x="123" y="348" type="line" smooth="yes"/>
      <point x="123" y="601"/>
      <point x="246" y="641"/>
      <point x="300" y="641" type="curve" smooth="yes"/>
      <point x="336" y="641"/>
      <point x="372" y="630"/>
      <point x="391" y="600" type="curve"/>
      <point x="379" y="600"/>
      <point x="341" y="600"/>
      <point x="341" y="559" type="curve" smooth="yes"/>
      <point x="341" y="537"/>
      <point x="356" y="518"/>
      <point x="382" y="518" type="curve" smooth="yes"/>
      <point x="407" y="518"/>
      <point x="424" y="533"/>
      <point x="424" y="562" type="curve" smooth="yes"/>
      <point x="424" y="614"/>
      <point x="386" y="665"/>
      <point x="299" y="665" type="curve" smooth="yes"/>
      <point x="173" y="665"/>
      <point x="41" y="536"/>
      <point x="41" y="316" type="curve" smooth="yes"/>
      <point x="41" y="41"/>
      <point x="161" y="-21"/>
      <point x="246" y="-21" type="curve" smooth="yes"/>
      <point x="355" y="-21"/>
      <point x="448" y="74"/>
      <point x="448" y="204" type="curve" smooth="yes"/>
      <point x="448" y="337"/>
      <point x="355" y="426"/>
      <point x="255" y="426" type="curve" smooth="yes"/>
      <point x="166" y="426"/>
      <point x="133" y="349"/>
      <point x="123" y="321" type="curve"/>
    </contour>
    <contour>
      <point x="246" y="6" type="curve" smooth="yes"/>
      <point x="183" y="6"/>
      <point x="153" y="62"/>
      <point x="144" y="83" type="curve"/>
      <point x="135" y="109"/>
      <point x="125" y="158"/>
      <point x="125" y="228" type="curve" smooth="yes"/>
      <point x="125" y="307"/>
      <point x="161" y="406"/>
      <point x="251" y="406" type="curve" smooth="yes"/>
      <point x="306" y="406"/>
      <point x="335" y="369"/>
      <point x="350" y="335" type="curve" smooth="yes"/>
      <point x="366" y="298"/>
      <point x="366" y="248"/>
      <point x="366" y="205" type="curve" smooth="yes"/>
      <point x="366" y="154"/>
      <point x="366" y="109"/>
      <point x="347" y="71" type="curve" smooth="yes"/>
      <point x="322" y="23"/>
      <point x="286" y="6"/>
    </contour>
  </outline>
</glyph>
<glyph name="nine" format="2">
  <advance width="489"/>
  <unicode hex="0039"/>
  <outline>
    <contour>
      <point x="366" y="291" type="line" smooth="yes"/>
      <point x="366" y="55"/>
      <point x="261" y="6"/>
      <point x="201" y="6" type="curve" smooth="yes"/>
      <point x="177" y="6"/>
      <point x="124" y="9"/>
      <point x="99" y="44" type="curve"/>
      <point x="105" y="44" type="line"/>
      <point x="112" y="42"/>
      <point x="148" y="48"/>
      <point x="148" y="85" type="curve" smooth="yes"/>
      <point x="148" y="107"/>
      <point x="133" y="126"/>
      <point x="107" y="126" type="curve" smooth="yes"/>
      <point x="81" y="126"/>
      <point x="65" y="109"/>
      <point x="65" y="83" type="curve" smooth="yes"/>
      <point x="65" y="21"/>
      <point x="115" y="-21"/>
      <point x="202" y="-21" type="curve" smooth="yes"/>
      <point x="327" y="-21"/>
      <point x="448" y="112"/>
      <point x="448" y="329" type="curve" smooth="yes"/>
      <point x="448" y="598"/>
      <point x="336" y="665"/>
      <point x="248" y="665" type="curve" smooth="yes"/>
      <point x="138" y="665"/>
      <point x="41" y="573"/>
      <point x="41" y="441" type="curve" smooth="yes"/>
      <point x="41" y="309"/>
      <point x="134" y="219"/>
      <point x="234" y="219" type="curve" smooth="yes"/>
      <point x="308" y="219"/>
      <point x="346" y="273"/>
      <point x="366" y="324" type="curve"/>
    </contour>
    <contour>
      <point x="238" y="239" type="curve" smooth="yes"/>
      <point x="175" y="239"/>
      <point x="148" y="290"/>
      <point x="139" y="309" type="curve" smooth="yes"/>
      <point x="123" y="347"/>
      <point x="123" y="395"/>
      <point x="123" y="440" type="curve" smooth="yes"/>
      <point x="123" y="496"/>
      <point x="123" y="544"/>
      <point x="149" y="585" type="curve" smooth="yes"/>
      <point x="167" y="612"/>
      <point x="194" y="641"/>
      <point x="248" y="641" type="curve" smooth="yes"/>
      <point x="305" y="641"/>
      <point x="334" y="591"/>
      <point x="344" y="568" type="curve" smooth="yes"/>
      <point x="364" y="519"/>
      <point x="364" y="434"/>
      <point x="364" y="419" type="curve" smooth="yes"/>
      <point x="364" y="335"/>
      <point x="326" y="239"/>
    </contour>
  </outline>
</glyph>
<glyph name="colon" format="2">
  <advance width="271"/>
  <unicode hex="003A"/>
  <outline>
    <contour>
      <point x="184" y="383" type="curve" smooth="yes"/>
      <point x="184" y="410"/>
      <point x="161" y="431"/>
      <point x="136" y="431" type="curve" smooth="yes"/>
      <point x="107" y="431"/>
      <point x="87" y="408"/>
      <point x="87" y="383" type="curve" smooth="yes"/>
      <point x="87" y="353"/>
      <point x="112" y="334"/>
      <point x="135" y="334" type="curve" smooth="yes"/>
      <point x="162" y="334"/>
      <point x="184" y="355"/>
    </contour>
    <contour>
      <point x="184" y="49" type="curve" smooth="yes"/>
      <point x="184" y="76"/>
      <point x="161" y="97"/>
      <point x="136" y="97" type="curve" smooth="yes"/>
      <point x="107" y="97"/>
      <point x="87" y="74"/>
      <point x="87" y="49" type="curve" smooth="yes"/>
      <point x="87" y="19"/>
      <point x="112" y="0"/>
      <point x="135" y="0" type="curve" smooth="yes"/>
      <point x="162" y="0"/>
      <point x="184" y="21"/>
    </contour>
  </outline>
</glyph>
<glyph name="semicolon" format="2">
  <advance width="271"/>
  <unicode hex="003B"/>
  <outline>
    <contour>
      <point x="184" y="383" type="curve" smooth="yes"/>
      <point x="184" y="410"/>
      <point x="161" y="431"/>
      <point x="136" y="431" type="curve" smooth="yes"/>
      <point x="107" y="431"/>
      <point x="87" y="408"/>
      <point x="87" y="383" type="curve" smooth="yes"/>
      <point x="87" y="353"/>
      <point x="112" y="334"/>
      <point x="135" y="334" type="curve" smooth="yes"/>
      <point x="162" y="334"/>
      <point x="184" y="355"/>
    </contour>
    <contour>
      <point x="167" y="10" type="curve"/>
      <point x="167" y="-25"/>
      <point x="167" y="-96"/>
      <point x="106" y="-171" type="curve" smooth="yes"/>
      <point x="100" y="-179"/>
      <point x="100" y="-181"/>
      <point x="100" y="-183" type="curve" smooth="yes"/>
      <point x="100" y="-188"/>
      <point x="105" y="-193"/>
      <point x="110" y="-193" type="curve" smooth="yes"/>
      <point x="117" y="-193"/>
      <point x="187" y="-119"/>
      <point x="187" y="-2" type="curve" smooth="yes"/>
      <point x="187" y="35"/>
      <point x="184" y="97"/>
      <point x="135" y="97" type="curve" smooth="yes"/>
      <point x="106" y="97"/>
      <point x="87" y="75"/>
      <point x="87" y="49" type="curve" smooth="yes"/>
      <point x="87" y="22"/>
      <point x="106" y="0"/>
      <point x="136" y="0" type="curve" smooth="yes"/>
      <point x="155" y="0"/>
      <point x="162" y="6"/>
    </contour>
  </outline>
</glyph>
<glyph name="D" format="2">
  <advance width="747"/>
  <unicode hex="0044"/>
  <outline>
    <contour>
      <point x="42" y="683" type="line"/>
      <point x="42" y="654" type="line"/>
      <point x="62" y="654" type="line" smooth="yes"/>
      <point x="134" y="654"/>
      <point x="137" y="644"/>
      <point x="137" y="607" type="curve" smooth="yes"/>
      <point x="137" y="76" type="line" smooth="yes"/>
      <point x="137" y="39"/>
      <point x="134" y="29"/>
      <point x="62" y="29" type="curve" smooth="yes"/>
      <point x="42" y="29" type="line"/>
      <point x="42" y="0" type="line"/>
      <point x="392" y="0" type="line" smooth="yes"/>
      <point x="559" y="0"/>
      <point x="693" y="150"/>
      <point x="693" y="335" type="curve" smooth="yes"/>
      <point x="693" y="528"/>
      <point x="558" y="683"/>
      <point x="392" y="683" type="curve" smooth="yes"/>
    </contour>
    <contour>
      <point x="262" y="29" type="line" smooth="yes"/>
      <point x="218" y="29"/>
      <point x="216" y="36"/>
      <point x="216" y="69" type="curve" smooth="yes"/>
      <point x="216" y="614" type="line" smooth="yes"/>
      <point x="216" y="647"/>
      <point x="218" y="654"/>
      <point x="262" y="654" type="curve" smooth="yes"/>
      <point x="367" y="654" type="line" smooth="yes"/>
      <point x="450" y="654"/>
      <point x="516" y="614"/>
      <point x="557" y="548" type="curve" smooth="yes"/>
      <point x="602" y="477"/>
      <point x="602" y="376"/>
      <point x="602" y="336" type="curve" smooth="yes"/>
      <point x="602" y="280"/>
      <point x="601" y="186"/>
      <point x="544" y="112" type="curve" smooth="yes"/>
      <point x="511" y="70"/>
      <point x="451" y="29"/>
      <point x="367" y="29" type="curve" smooth="yes"/>
    </contour>
  </outline>
</glyph>
<glyph name="F" format="2">
  <advance width="639"/>
  <unicode hex="0046"/>
  <outline>
    <contour>
      <point x="136" y="76" type="line" smooth="yes"/>
      <point x="136" y="39"/>
      <point x="133" y="29"/>
      <point x="61" y="29" type="curve" smooth="yes"/>
      <point x="41" y="29" type="line"/>
      <point x="41" y="0" type="line"/>
      <point x="65" y="2"/>
      <point x="154" y="2"/>
      <point x="184" y="2" type="curve" smooth="yes"/>
      <point x="219" y="2"/>
      <point x="307" y="2"/>
      <point x="336" y="0" type="curve"/>
      <point x="336" y="29" type="line"/>
      <point x="306" y="29" type="line" smooth="yes"/>
      <point x="219" y="29"/>
      <point x="217" y="41"/>
      <point x="217" y="77" type="curve" smooth="yes"/>
      <point x="217" y="326" type="line"/>
      <point x="305" y="326" type="line" smooth="yes"/>
      <point x="399" y="326"/>
      <point x="409" y="293"/>
      <point x="409" y="209" type="curve"/>
      <point x="431" y="209" type="line"/>
      <point x="431" y="472" type="line"/>
      <point x="409" y="472" type="line"/>
      <point x="409" y="388"/>
      <point x="399" y="355"/>
      <point x="305" y="355" type="curve" smooth="yes"/>
      <point x="217" y="355" type="line"/>
      <point x="217" y="612" type="line" smooth="yes"/>
      <point x="217" y="645"/>
      <point x="219" y="652"/>
      <point x="263" y="652" type="curve" smooth="yes"/>
      <point x="388" y="652" type="line" smooth="yes"/>
      <point x="532" y="652"/>
      <point x="561" y="599"/>
      <point x="575" y="458" type="curve"/>
      <point x="597" y="458" type="line"/>
      <point x="571" y="681" type="line"/>
      <point x="41" y="681" type="line"/>
      <point x="41" y="652" type="line"/>
      <point x="61" y="652" type="line" smooth="yes"/>
      <point x="133" y="652"/>
      <point x="136" y="642"/>
      <point x="136" y="605" type="curve" smooth="yes"/>
    </contour>
  </outline>
</glyph>
<glyph name="G" format="2">
  <advance width="768"/>
  <unicode hex="0047"/>
  <outline>
    <contour>
      <point x="651" y="198" type="line" smooth="yes"/>
      <point x="651" y="237"/>
      <point x="655" y="242"/>
      <point x="719" y="242" type="curve"/>
      <point x="719" y="271" type="line"/>
      <point x="693" y="269"/>
      <point x="624" y="269"/>
      <point x="594" y="269" type="curve" smooth="yes"/>
      <point x="562" y="269"/>
      <point x="475" y="269"/>
      <point x="448" y="271" type="curve"/>
      <point x="448" y="242" type="line"/>
      <point x="479" y="242" type="line" smooth="yes"/>
      <point x="567" y="242"/>
      <point x="570" y="230"/>
      <point x="570" y="194" type="curve" smooth="yes"/>
      <point x="570" y="130" type="line" smooth="yes"/>
      <point x="570" y="16"/>
      <point x="439" y="8"/>
      <point x="413" y="8" type="curve" smooth="yes"/>
      <point x="334" y="8"/>
      <point x="147" y="56"/>
      <point x="147" y="342" type="curve" smooth="yes"/>
      <point x="147" y="631"/>
      <point x="336" y="675"/>
      <point x="406" y="675" type="curve" smooth="yes"/>
      <point x="493" y="675"/>
      <point x="597" y="612"/>
      <point x="623" y="435" type="curve" smooth="yes"/>
      <point x="625" y="424"/>
      <point x="625" y="421"/>
      <point x="637" y="421" type="curve" smooth="yes"/>
      <point x="651" y="421"/>
      <point x="651" y="424"/>
      <point x="651" y="444" type="curve" smooth="yes"/>
      <point x="651" y="681" type="line" smooth="yes"/>
      <point x="651" y="699"/>
      <point x="651" y="704"/>
      <point x="641" y="704" type="curve" smooth="yes"/>
      <point x="635" y="704"/>
      <point x="634" y="702"/>
      <point x="628" y="692" type="curve" smooth="yes"/>
      <point x="579" y="613" type="line"/>
      <point x="550" y="649"/>
      <point x="489" y="704"/>
      <point x="394" y="704" type="curve" smooth="yes"/>
      <point x="213" y="704"/>
      <point x="54" y="547"/>
      <point x="54" y="342" type="curve" smooth="yes"/>
      <point x="54" y="135"/>
      <point x="213" y="-21"/>
      <point x="395" y="-21" type="curve" smooth="yes"/>
      <point x="466" y="-21"/>
      <point x="547" y="2"/>
      <point x="584" y="66" type="curve"/>
      <point x="602" y="34"/>
      <point x="635" y="1"/>
      <point x="643" y="1" type="curve" smooth="yes"/>
      <point x="651" y="1"/>
      <point x="651" y="7"/>
      <point x="651" y="23" type="curve" smooth="yes"/>
    </contour>
  </outline>
</glyph>
<glyph name="M" format="2">
  <advance width="897"/>
  <unicode hex="004D"/>
  <outline>
    <contour>
      <point x="139" y="103" type="line" smooth="yes"/>
      <point x="139" y="76"/>
      <point x="139" y="29"/>
      <point x="44" y="29" type="curve"/>
      <point x="44" y="0" type="line"/>
      <point x="70" y="2"/>
      <point x="123" y="2"/>
      <point x="151" y="2" type="curve" smooth="yes"/>
      <point x="179" y="2"/>
      <point x="232" y="2"/>
      <point x="258" y="0" type="curve"/>
      <point x="258" y="29" type="line"/>
      <point x="163" y="29"/>
      <point x="163" y="76"/>
      <point x="163" y="103" type="curve" smooth="yes"/>
      <point x="163" y="649" type="line"/>
      <point x="164" y="649" type="line"/>
      <point x="405" y="19" type="line" smooth="yes"/>
      <point x="409" y="8"/>
      <point x="412" y="0"/>
      <point x="422" y="0" type="curve" smooth="yes"/>
      <point x="431" y="0"/>
      <point x="433" y="5"/>
      <point x="439" y="20" type="curve" smooth="yes"/>
      <point x="682" y="654" type="line"/>
      <point x="683" y="654" type="line"/>
      <point x="683" y="76" type="line" smooth="yes"/>
      <point x="683" y="39"/>
      <point x="680" y="29"/>
      <point x="608" y="29" type="curve" smooth="yes"/>
      <point x="588" y="29" type="line"/>
      <point x="588" y="0" type="line"/>
      <point x="611" y="2"/>
      <point x="691" y="2"/>
      <point x="720" y="2" type="curve" smooth="yes"/>
      <point x="749" y="2"/>
      <point x="829" y="2"/>
      <point x="852" y="0" type="curve"/>
      <point x="852" y="29" type="line"/>
      <point x="832" y="29" type="line" smooth="yes"/>
      <point x="760" y="29"/>
      <point x="757" y="39"/>
      <point x="757" y="76" type="curve" smooth="yes"/>
      <point x="757" y="607" type="line" smooth="yes"/>
      <point x="757" y="644"/>
      <point x="760" y="654"/>
      <point x="832" y="654" type="curve" smooth="yes"/>
      <point x="852" y="654" type="line"/>
      <point x="852" y="683" type="line"/>
      <point x="697" y="683" type="line" smooth="yes"/>
      <point x="675" y="683"/>
      <point x="674" y="682"/>
      <point x="666" y="663" type="curve" smooth="yes"/>
      <point x="448" y="94" type="line"/>
      <point x="230" y="664" type="line" smooth="yes"/>
      <point x="223" y="683"/>
      <point x="222" y="683"/>
      <point x="199" y="683" type="curve" smooth="yes"/>
      <point x="44" y="683" type="line"/>
      <point x="44" y="654" type="line"/>
      <point x="64" y="654" type="line" smooth="yes"/>
      <point x="136" y="654"/>
      <point x="139" y="644"/>
      <point x="139" y="607" type="curve" smooth="yes"/>
    </contour>
  </outline>
</glyph>
<glyph name="N" format="2">
  <advance width="734"/>
  <unicode hex="004E"/>
  <outline>
    <contour>
      <point x="136" y="105" type="line" smooth="yes"/>
      <point x="136" y="76"/>
      <point x="136" y="29"/>
      <point x="41" y="29" type="curve"/>
      <point x="41" y="0" type="line"/>
      <point x="67" y="2"/>
      <point x="120" y="2"/>
      <point x="148" y="2" type="curve" smooth="yes"/>
      <point x="176" y="2"/>
      <point x="229" y="2"/>
      <point x="255" y="0" type="curve"/>
      <point x="255" y="29" type="line"/>
      <point x="160" y="29"/>
      <point x="160" y="76"/>
      <point x="160" y="105" type="curve" smooth="yes"/>
      <point x="160" y="631" type="line"/>
      <point x="168" y="623"/>
      <point x="168" y="621"/>
      <point x="177" y="609" type="curve"/>
      <point x="567" y="15" type="line" smooth="yes"/>
      <point x="577" y="1"/>
      <point x="578" y="0"/>
      <point x="585" y="0" type="curve" smooth="yes"/>
      <point x="594" y="0"/>
      <point x="596" y="4"/>
      <point x="597" y="6" type="curve"/>
      <point x="597" y="578" type="line" smooth="yes"/>
      <point x="597" y="607"/>
      <point x="597" y="654"/>
      <point x="692" y="654" type="curve"/>
      <point x="692" y="683" type="line"/>
      <point x="666" y="681"/>
      <point x="613" y="681"/>
      <point x="585" y="681" type="curve" smooth="yes"/>
      <point x="557" y="681"/>
      <point x="504" y="681"/>
      <point x="478" y="683" type="curve"/>
      <point x="478" y="654" type="line"/>
      <point x="573" y="654"/>
      <point x="573" y="607"/>
      <point x="573" y="578" type="curve" smooth="yes"/>
      <point x="573" y="141" type="line"/>
      <point x="226" y="669" type="line" smooth="yes"/>
      <point x="217" y="682"/>
      <point x="216" y="683"/>
      <point x="194" y="683" type="curve" smooth="yes"/>
      <point x="41" y="683" type="line"/>
      <point x="41" y="654" type="line"/>
      <point x="41" y="654" type="line"/>
      <point x="84" y="654"/>
      <point x="109" y="654"/>
      <point x="136" y="647" type="curve"/>
      <point x="136" y="647" type="line"/>
    </contour>
  </outline>
</glyph>
<glyph name="O" format="2">
  <advance width="761"/>
  <unicode hex="004F"/>
  <outline>
    <contour>
      <point x="707" y="339" type="curve" smooth="yes"/>
      <point x="707" y="546"/>
      <point x="555" y="704"/>
      <point x="381" y="704" type="curve" smooth="yes"/>
      <point x="203" y="704"/>
      <point x="54" y="544"/>
      <point x="54" y="339" type="curve" smooth="yes"/>
      <point x="54" y="136"/>
      <point x="205" y="-21"/>
      <point x="380" y="-21" type="curve" smooth="yes"/>
      <point x="559" y="-21"/>
      <point x="707" y="138"/>
    </contour>
    <contour>
      <point x="381" y="2" type="curve" smooth="yes"/>
      <point x="279" y="2"/>
      <point x="147" y="98"/>
      <point x="147" y="354" type="curve" smooth="yes"/>
      <point x="147" y="599"/>
      <point x="286" y="682"/>
      <point x="380" y="682" type="curve" smooth="yes"/>
      <point x="479" y="682"/>
      <point x="614" y="596"/>
      <point x="614" y="354" type="curve" smooth="yes"/>
      <point x="614" y="94"/>
      <point x="478" y="2"/>
    </contour>
  </outline>
</glyph>
<glyph name="P" format="2">
  <advance width="666"/>
  <unicode hex="0050"/>
  <outline>
    <contour>
      <point x="137" y="76" type="line" smooth="yes"/>
      <point x="137" y="39"/>
      <point x="134" y="29"/>
      <point x="62" y="29" type="curve" smooth="yes"/>
      <point x="42" y="29" type="line"/>
      <point x="42" y="0" type="line"/>
      <point x="66" y="2"/>
      <point x="148" y="2"/>
      <point x="177" y="2" type="curve" smooth="yes"/>
      <point x="207" y="2"/>
      <point x="289" y="2"/>
      <point x="313" y="0" type="curve"/>
      <point x="313" y="29" type="line"/>
      <point x="293" y="29" type="line" smooth="yes"/>
      <point x="221" y="29"/>
      <point x="218" y="39"/>
      <point x="218" y="76" type="curve" smooth="yes"/>
      <point x="218" y="318" type="line"/>
      <point x="387" y="318" type="line" smooth="yes"/>
      <point x="504" y="318"/>
      <point x="611" y="397"/>
      <point x="611" y="498" type="curve" smooth="yes"/>
      <point x="611" y="595"/>
      <point x="514" y="683"/>
      <point x="379" y="683" type="curve" smooth="yes"/>
      <point x="42" y="683" type="line"/>
      <point x="42" y="654" type="line"/>
      <point x="62" y="654" type="line" smooth="yes"/>
      <point x="134" y="654"/>
      <point x="137" y="644"/>
      <point x="137" y="607" type="curve" smooth="yes"/>
    </contour>
    <contour>
      <point x="216" y="342" type="line"/>
      <point x="216" y="614" type="line" smooth="yes"/>
      <point x="216" y="647"/>
      <point x="218" y="654"/>
      <point x="262" y="654" type="curve" smooth="yes"/>
      <point x="356" y="654" type="line" smooth="yes"/>
      <point x="518" y="654"/>
      <point x="518" y="541"/>
      <point x="518" y="498" type="curve" smooth="yes"/>
      <point x="518" y="456"/>
      <point x="518" y="342"/>
      <point x="355" y="342" type="curve" smooth="yes"/>
    </contour>
  </outline>
</glyph>
<glyph name="X" format="2">
  <advance width="734"/>
  <unicode hex="0058"/>
  <outline>
    <contour>
      <point x="391" y="384" type="line"/>
      <point x="529" y="585" type="line" smooth="yes"/>
      <point x="546" y="609"/>
      <point x="575" y="653"/>
      <point x="670" y="654" type="curve"/>
      <point x="670" y="683" type="line"/>
      <point x="627" y="681"/>
      <point x="616" y="681"/>
      <point x="565" y="681" type="curve" smooth="yes"/>
      <point x="538" y="681"/>
      <point x="474" y="681"/>
      <point x="451" y="683" type="curve"/>
      <point x="451" y="654" type="line"/>
      <point x="492" y="651"/>
      <point x="505" y="627"/>
      <point x="505" y="610" type="curve" smooth="yes"/>
      <point x="505" y="599"/>
      <point x="501" y="593"/>
      <point x="495" y="584" type="curve" smooth="yes"/>
      <point x="375" y="408" type="line"/>
      <point x="240" y="608" type="line" smooth="yes"/>
      <point x="237" y="612"/>
      <point x="233" y="619"/>
      <point x="233" y="624" type="curve" smooth="yes"/>
      <point x="233" y="638"/>
      <point x="254" y="654"/>
      <point x="290" y="654" type="curve"/>
      <point x="290" y="683" type="line"/>
      <point x="266" y="681"/>
      <point x="187" y="681"/>
      <point x="158" y="681" type="curve" smooth="yes"/>
      <point x="130" y="681"/>
      <point x="60" y="681"/>
      <point x="36" y="683" type="curve"/>
      <point x="36" y="654" type="line"/>
      <point x="111" y="654"/>
      <point x="121" y="649"/>
      <point x="142" y="617" type="curve" smooth="yes"/>
      <point x="329" y="340" type="line"/>
      <point x="161" y="95" type="line" smooth="yes"/>
      <point x="144" y="70"/>
      <point x="112" y="30"/>
      <point x="22" y="29" type="curve"/>
      <point x="22" y="0" type="line"/>
      <point x="65" y="2"/>
      <point x="76" y="2"/>
      <point x="127" y="2" type="curve" smooth="yes"/>
      <point x="154" y="2"/>
      <point x="219" y="2"/>
      <point x="242" y="0" type="curve"/>
      <point x="242" y="29" type="line"/>
      <point x="200" y="31"/>
      <point x="187" y="56"/>
      <point x="187" y="73" type="curve" smooth="yes"/>
      <point x="187" y="84"/>
      <point x="192" y="91"/>
      <point x="198" y="100" type="curve" smooth="yes"/>
      <point x="345" y="315" type="line"/>
      <point x="507" y="73" type="line" smooth="yes"/>
      <point x="513" y="64"/>
      <point x="514" y="63"/>
      <point x="514" y="59" type="curve" smooth="yes"/>
      <point x="514" y="47"/>
      <point x="496" y="30"/>
      <point x="457" y="29" type="curve"/>
      <point x="457" y="0" type="line"/>
      <point x="481" y="2"/>
      <point x="559" y="2"/>
      <point x="588" y="2" type="curve" smooth="yes"/>
      <point x="616" y="2"/>
      <point x="687" y="2"/>
      <point x="711" y="0" type="curve"/>
      <point x="711" y="29" type="line"/>
      <point x="652" y="29"/>
      <point x="628" y="29"/>
      <point x="605" y="64" type="curve" smooth="yes"/>
    </contour>
  </outline>
</glyph>
<glyph name="bracketleft" format="2">
  <advance width="271"/>
  <unicode hex="005B"/>
  <outline>
    <contour>
      <point x="250" y="-250" type="line"/>
      <point x="250" y="-213" type="line"/>
      <point x="153" y="-213" type="line"/>
      <point x="153" y="713" type="line"/>
      <point x="250" y="713" type="line"/>
      <point x="250" y="750" type="line"/>
      <point x="116" y="750" type="line"/>
      <point x="116" y="-250" type="line"/>
    </contour>
  </outline>
</glyph>
<glyph name="a" format="2">
  <advance width="489"/>
  <unicode hex="0061"/>
  <outline>
    <contour>
      <point x="386" y="267" type="line" smooth="yes"/>
      <point x="386" y="321"/>
      <point x="386" y="361"/>
      <point x="342" y="400" type="curve" smooth="yes"/>
      <point x="307" y="432"/>
      <point x="262" y="446"/>
      <point x="218" y="446" type="curve" smooth="yes"/>
      <point x="136" y="446"/>
      <point x="73" y="392"/>
      <point x="73" y="327" type="curve" smooth="yes"/>
      <point x="73" y="298"/>
      <point x="92" y="284"/>
      <point x="115" y="284" type="curve" smooth="yes"/>
      <point x="139" y="284"/>
      <point x="156" y="301"/>
      <point x="156" y="325" type="curve" smooth="yes"/>
      <point x="156" y="366"/>
      <point x="120" y="366"/>
      <point x="105" y="366" type="curve"/>
      <point x="128" y="408"/>
      <point x="176" y="426"/>
      <point x="216" y="426" type="curve" smooth="yes"/>
      <point x="262" y="426"/>
      <point x="321" y="388"/>
      <point x="321" y="298" type="curve" smooth="yes"/>
      <point x="321" y="258" type="line"/>
      <point x="120" y="255"/>
      <point x="44" y="171"/>
      <point x="44" y="94" type="curve" smooth="yes"/>
      <point x="44" y="15"/>
      <point x="136" y="-10"/>
      <point x="197" y="-10" type="curve" smooth="yes"/>
      <point x="263" y="-10"/>
      <point x="308" y="30"/>
      <point x="327" y="78" type="curve"/>
      <point x="331" y="31"/>
      <point x="362" y="-5"/>
      <point x="405" y="-5" type="curve" smooth="yes"/>
      <point x="426" y="-5"/>
      <point x="484" y="9"/>
      <point x="484" y="89" type="curve" smooth="yes"/>
      <point x="484" y="145" type="line"/>
      <point x="462" y="145" type="line"/>
      <point x="462" y="89" type="line" smooth="yes"/>
      <point x="462" y="32"/>
      <point x="438" y="24"/>
      <point x="424" y="24" type="curve" smooth="yes"/>
      <point x="386" y="24"/>
      <point x="386" y="77"/>
      <point x="386" y="92" type="curve" smooth="yes"/>
    </contour>
    <contour>
      <point x="321" y="141" type="line" smooth="yes"/>
      <point x="321" y="43"/>
      <point x="248" y="10"/>
      <point x="205" y="10" type="curve" smooth="yes"/>
      <point x="156" y="10"/>
      <point x="115" y="46"/>
      <point x="115" y="94" type="curve" smooth="yes"/>
      <point x="115" y="226"/>
      <point x="285" y="238"/>
      <point x="321" y="240" type="curve"/>
    </contour>
  </outline>
</glyph>
<glyph name="c" format="2">
  <advance width="435"/>
  <unicode hex="0063"/>
  <outline>
    <contour>
      <point x="362" y="370" type="curve"/>
      <point x="350" y="370"/>
      <point x="313" y="370"/>
      <point x="313" y="329" type="curve" smooth="yes"/>
      <point x="313" y="305"/>
      <point x="330" y="288"/>
      <point x="354" y="288" type="curve" smooth="yes"/>
      <point x="377" y="288"/>
      <point x="396" y="302"/>
      <point x="396" y="331" type="curve" smooth="yes"/>
      <point x="396" y="398"/>
      <point x="326" y="446"/>
      <point x="245" y="446" type="curve" smooth="yes"/>
      <point x="128" y="446"/>
      <point x="35" y="342"/>
      <point x="35" y="216" type="curve" smooth="yes"/>
      <point x="35" y="88"/>
      <point x="131" y="-10"/>
      <point x="244" y="-10" type="curve" smooth="yes"/>
      <point x="376" y="-10"/>
      <point x="406" y="110"/>
      <point x="406" y="119" type="curve" smooth="yes"/>
      <point x="406" y="128"/>
      <point x="399" y="128"/>
      <point x="396" y="128" type="curve" smooth="yes"/>
      <point x="387" y="128"/>
      <point x="386" y="125"/>
      <point x="383" y="113" type="curve"/>
      <point x="361" y="42"/>
      <point x="307" y="12"/>
      <point x="253" y="12" type="curve" smooth="yes"/>
      <point x="192" y="12"/>
      <point x="111" y="65"/>
      <point x="111" y="217" type="curve" smooth="yes"/>
      <point x="111" y="383"/>
      <point x="196" y="424"/>
      <point x="246" y="424" type="curve" smooth="yes"/>
      <point x="284" y="424"/>
      <point x="339" y="409"/>
    </contour>
  </outline>
</glyph>
<glyph name="e" format="2">
  <advance width="435"/>
  <unicode hex="0065"/>
  <outline>
    <contour>
      <point x="106" y="232" type="line"/>
      <point x="383" y="232" type="line" smooth="yes"/>
      <point x="405" y="232"/>
      <point x="407" y="232"/>
      <point x="407" y="251" type="curve" smooth="yes"/>
      <point x="407" y="352"/>
      <point x="353" y="446"/>
      <point x="232" y="446" type="curve" smooth="yes"/>
      <point x="118" y="446"/>
      <point x="30" y="343"/>
      <point x="30" y="219" type="curve" smooth="yes"/>
      <point x="30" y="87"/>
      <point x="132" y="-10"/>
      <point x="243" y="-10" type="curve" smooth="yes"/>
      <point x="362" y="-10"/>
      <point x="407" y="98"/>
      <point x="407" y="119" type="curve" smooth="yes"/>
      <point x="407" y="125"/>
      <point x="402" y="129"/>
      <point x="396" y="129" type="curve" smooth="yes"/>
      <point x="388" y="129"/>
      <point x="386" y="124"/>
      <point x="384" y="119" type="curve"/>
      <point x="358" y="35"/>
      <point x="291" y="12"/>
      <point x="249" y="12" type="curve" smooth="yes"/>
      <point x="207" y="12"/>
      <point x="106" y="40"/>
      <point x="106" y="213" type="curve" smooth="yes"/>
    </contour>
    <contour>
      <point x="107" y="251" type="line"/>
      <point x="115" y="408"/>
      <point x="203" y="426"/>
      <point x="231" y="426" type="curve" smooth="yes"/>
      <point x="338" y="426"/>
      <point x="344" y="285"/>
      <point x="345" y="251" type="curve"/>
    </contour>
  </outline>
</glyph>
<glyph name="f" format="2">
  <advance width="299"/>
  <unicode hex="0066"/>
  <outline>
    <contour>
      <point x="109" y="74" type="line" smooth="yes"/>
      <point x="109" y="29"/>
      <point x="98" y="29"/>
      <point x="33" y="29" type="curve"/>
      <point x="33" y="29" type="line"/>
      <point x="33" y="0" type="line"/>
      <point x="61" y="2"/>
      <point x="116" y="2"/>
      <point x="146" y="2" type="curve" smooth="yes"/>
      <point x="173" y="2"/>
      <point x="244" y="2"/>
      <point x="267" y="0" type="curve"/>
      <point x="267" y="29" type="line"/>
      <point x="247" y="29" type="line" smooth="yes"/>
      <point x="174" y="29"/>
      <point x="172" y="40"/>
      <point x="172" y="76" type="curve" smooth="yes"/>
      <point x="172" y="402" type="line"/>
      <point x="285" y="402" type="line"/>
      <point x="285" y="431" type="line"/>
      <point x="170" y="431" type="line"/>
      <point x="170" y="548" type="line" smooth="yes"/>
      <point x="170" y="638"/>
      <point x="216" y="684"/>
      <point x="257" y="684" type="curve" smooth="yes"/>
      <point x="265" y="684"/>
      <point x="280" y="682"/>
      <point x="292" y="676" type="curve"/>
      <point x="288" y="675"/>
      <point x="263" y="666"/>
      <point x="263" y="637" type="curve" smooth="yes"/>
      <point x="263" y="614"/>
      <point x="279" y="598"/>
      <point x="302" y="598" type="curve" smooth="yes"/>
      <point x="326" y="598"/>
      <point x="342" y="614"/>
      <point x="342" y="638" type="curve" smooth="yes"/>
      <point x="342" y="675"/>
      <point x="306" y="704"/>
      <point x="258" y="704" type="curve" smooth="yes"/>
      <point x="188" y="704"/>
      <point x="109" y="650"/>
      <point x="109" y="548" type="curve" smooth="yes"/>
      <point x="109" y="431" type="line"/>
      <point x="31" y="431" type="line"/>
      <point x="31" y="402" type="line"/>
      <point x="109" y="402" type="line"/>
    </contour>
  </outline>
</glyph>
<glyph name="j" format="2">
  <advance width="299"/>
  <unicode hex="006A"/>
  <outline>
    <contour>
      <point x="203" y="616" type="curve" smooth="yes"/>
      <point x="203" y="646"/>
      <point x="179" y="665"/>
      <point x="155" y="665" type="curve" smooth="yes"/>
      <point x="127" y="665"/>
      <point x="106" y="643"/>
      <point x="106" y="616" type="curve" smooth="yes"/>
      <point x="106" y="590"/>
      <point x="128" y="568"/>
      <point x="154" y="568" type="curve" smooth="yes"/>
      <point x="184" y="568"/>
      <point x="203" y="592"/>
    </contour>
    <contour>
      <point x="56" y="430" type="line"/>
      <point x="56" y="401" type="line"/>
      <point x="131" y="401"/>
      <point x="140" y="394"/>
      <point x="140" y="345" type="curve" smooth="yes"/>
      <point x="140" y="-55" type="line" smooth="yes"/>
      <point x="140" y="-110"/>
      <point x="129" y="-184"/>
      <point x="71" y="-184" type="curve" smooth="yes"/>
      <point x="69" y="-184"/>
      <point x="38" y="-184"/>
      <point x="15" y="-170" type="curve"/>
      <point x="41" y="-165"/>
      <point x="49" y="-146"/>
      <point x="49" y="-129" type="curve" smooth="yes"/>
      <point x="49" y="-106"/>
      <point x="32" y="-88"/>
      <point x="8" y="-88" type="curve" smooth="yes"/>
      <point x="-17" y="-88"/>
      <point x="-34" y="-106"/>
      <point x="-34" y="-130" type="curve" smooth="yes"/>
      <point x="-34" y="-178"/>
      <point x="20" y="-204"/>
      <point x="72" y="-204" type="curve" smooth="yes"/>
      <point x="144" y="-204"/>
      <point x="203" y="-142"/>
      <point x="203" y="-51" type="curve" smooth="yes"/>
      <point x="203" y="441" type="line"/>
    </contour>
  </outline>
</glyph>
<glyph name="o" format="2">
  <advance width="489"/>
  <unicode hex="006F"/>
  <outline>
    <contour>
      <point x="459" y="214" type="curve" smooth="yes"/>
      <point x="459" y="343"/>
      <point x="361" y="446"/>
      <point x="245" y="446" type="curve" smooth="yes"/>
      <point x="125" y="446"/>
      <point x="30" y="340"/>
      <point x="30" y="214" type="curve" smooth="yes"/>
      <point x="30" y="86"/>
      <point x="130" y="-10"/>
      <point x="244" y="-10" type="curve" smooth="yes"/>
      <point x="362" y="-10"/>
      <point x="459" y="88"/>
    </contour>
    <contour>
      <point x="245" y="12" type="curve" smooth="yes"/>
      <point x="208" y="12"/>
      <point x="163" y="28"/>
      <point x="134" y="77" type="curve" smooth="yes"/>
      <point x="107" y="122"/>
      <point x="106" y="181"/>
      <point x="106" y="223" type="curve" smooth="yes"/>
      <point x="106" y="261"/>
      <point x="106" y="322"/>
      <point x="137" y="367" type="curve" smooth="yes"/>
      <point x="165" y="410"/>
      <point x="209" y="426"/>
      <point x="244" y="426" type="curve" smooth="yes"/>
      <point x="283" y="426"/>
      <point x="325" y="408"/>
      <point x="352" y="369" type="curve" smooth="yes"/>
      <point x="383" y="323"/>
      <point x="383" y="260"/>
      <point x="383" y="223" type="curve" smooth="yes"/>
      <point x="383" y="188"/>
      <point x="383" y="126"/>
      <point x="357" y="79" type="curve" smooth="yes"/>
      <point x="329" y="31"/>
      <point x="283" y="12"/>
    </contour>
  </outline>
</glyph>
<glyph name="p" format="2">
  <advance width="543"/>
  <unicode hex="0070"/>
  <outline>
    <contour>
      <point x="245" y="-165" type="line"/>
      <point x="181" y="-165"/>
      <point x="169" y="-165"/>
      <point x="169" y="-120" type="curve" smooth="yes"/>
      <point x="169" y="54" type="line"/>
      <point x="187" y="29"/>
      <point x="228" y="-10"/>
      <point x="292" y="-10" type="curve" smooth="yes"/>
      <point x="407" y="-10"/>
      <point x="508" y="87"/>
      <point x="508" y="216" type="curve" smooth="yes"/>
      <point x="508" y="343"/>
      <point x="414" y="441"/>
      <point x="305" y="441" type="curve" smooth="yes"/>
      <point x="217" y="441"/>
      <point x="170" y="378"/>
      <point x="167" y="374" type="curve"/>
      <point x="167" y="441" type="line"/>
      <point x="28" y="430" type="line"/>
      <point x="28" y="401" type="line"/>
      <point x="98" y="401"/>
      <point x="104" y="394"/>
      <point x="104" y="350" type="curve" smooth="yes"/>
      <point x="104" y="-120" type="line" smooth="yes"/>
      <point x="104" y="-165"/>
      <point x="93" y="-165"/>
      <point x="28" y="-165" type="curve"/>
      <point x="28" y="-194" type="line"/>
      <point x="54" y="-192"/>
      <point x="108" y="-192"/>
      <point x="136" y="-192" type="curve" smooth="yes"/>
      <point x="165" y="-192"/>
      <point x="219" y="-192"/>
      <point x="245" y="-194" type="curve"/>
    </contour>
    <contour>
      <point x="169" y="319" type="line" smooth="yes"/>
      <point x="169" y="338"/>
      <point x="169" y="339"/>
      <point x="180" y="355" type="curve" smooth="yes"/>
      <point x="210" y="400"/>
      <point x="259" y="419"/>
      <point x="297" y="419" type="curve" smooth="yes"/>
      <point x="372" y="419"/>
      <point x="432" y="328"/>
      <point x="432" y="216" type="curve" smooth="yes"/>
      <point x="432" y="97"/>
      <point x="364" y="10"/>
      <point x="287" y="10" type="curve" smooth="yes"/>
      <point x="256" y="10"/>
      <point x="227" y="23"/>
      <point x="207" y="42" type="curve" smooth="yes"/>
      <point x="184" y="65"/>
      <point x="169" y="85"/>
      <point x="169" y="113" type="curve" smooth="yes"/>
    </contour>
  </outline>
</glyph>
<glyph name="t" format="2">
  <advance width="380"/>
  <unicode hex="0074"/>
  <outline>
    <contour>
      <point x="168" y="402" type="line"/>
      <point x="309" y="402" type="line"/>
      <point x="309" y="431" type="line"/>
      <point x="168" y="431" type="line"/>
      <point x="168" y="615" type="line"/>
      <point x="146" y="615" type="line"/>
      <point x="145" y="521"/>
      <point x="109" y="425"/>
      <point x="18" y="422" type="curve"/>
      <point x="18" y="402" type="line"/>
      <point x="103" y="402" type="line"/>
      <point x="103" y="124" type="line" smooth="yes"/>
      <point x="103" y="13"/>
      <point x="177" y="-10"/>
      <point x="230" y="-10" type="curve" smooth="yes"/>
      <point x="293" y="-10"/>
      <point x="326" y="52"/>
      <point x="326" y="124" type="curve" smooth="yes"/>
      <point x="326" y="181" type="line"/>
      <point x="304" y="181" type="line"/>
      <point x="304" y="126" type="line" smooth="yes"/>
      <point x="304" y="54"/>
      <point x="275" y="12"/>
      <point x="236" y="12" type="curve" smooth="yes"/>
      <point x="168" y="12"/>
      <point x="168" y="105"/>
      <point x="168" y="122" type="curve" smooth="yes"/>
    </contour>
  </outline>
</glyph>
<glyph name="u" format="2">
  <advance width="543"/>
  <unicode hex="0075"/>
  <outline>
    <contour>
      <point x="304" y="430" type="line"/>
      <point x="304" y="401" type="line"/>
      <point x="372" y="401"/>
      <point x="380" y="394"/>
      <point x="380" y="345" type="curve" smooth="yes"/>
      <point x="380" y="166" type="line" smooth="yes"/>
      <point x="380" y="81"/>
      <point x="335" y="10"/>
      <point x="260" y="10" type="curve" smooth="yes"/>
      <point x="178" y="10"/>
      <point x="173" y="57"/>
      <point x="173" y="110" type="curve" smooth="yes"/>
      <point x="173" y="441" type="line"/>
      <point x="32" y="430" type="line"/>
      <point x="32" y="401" type="line"/>
      <point x="108" y="401"/>
      <point x="108" y="398"/>
      <point x="108" y="309" type="curve" smooth="yes"/>
      <point x="108" y="159" type="line" smooth="yes"/>
      <point x="108" y="97"/>
      <point x="108" y="61"/>
      <point x="138" y="28" type="curve" smooth="yes"/>
      <point x="162" y="2"/>
      <point x="203" y="-10"/>
      <point x="254" y="-10" type="curve" smooth="yes"/>
      <point x="271" y="-10"/>
      <point x="303" y="-10"/>
      <point x="337" y="19" type="curve" smooth="yes"/>
      <point x="366" y="42"/>
      <point x="382" y="80"/>
      <point x="382" y="80" type="curve"/>
      <point x="382" y="-10" type="line"/>
      <point x="521" y="0" type="line"/>
      <point x="521" y="29" type="line"/>
      <point x="453" y="29"/>
      <point x="445" y="36"/>
      <point x="445" y="85" type="curve" smooth="yes"/>
      <point x="445" y="441" type="line"/>
    </contour>
  </outline>
</glyph>
<glyph name="v" format="2">
  <advance width="516"/>
  <unicode hex="0076"/>
  <outline>
    <contour>
      <point x="408" y="336" type="line" smooth="yes"/>
      <point x="417" y="358"/>
      <point x="434" y="401"/>
      <point x="498" y="402" type="curve"/>
      <point x="498" y="431" type="line"/>
      <point x="469" y="429"/>
      <point x="455" y="429"/>
      <point x="424" y="429" type="curve" smooth="yes"/>
      <point x="403" y="429"/>
      <point x="388" y="429"/>
      <point x="342" y="431" type="curve"/>
      <point x="342" y="402" type="line"/>
      <point x="384" y="400"/>
      <point x="389" y="370"/>
      <point x="389" y="359" type="curve" smooth="yes"/>
      <point x="389" y="350"/>
      <point x="387" y="345"/>
      <point x="382" y="333" type="curve" smooth="yes"/>
      <point x="280" y="75" type="line"/>
      <point x="168" y="357" type="line" smooth="yes"/>
      <point x="163" y="371"/>
      <point x="162" y="371"/>
      <point x="162" y="376" type="curve" smooth="yes"/>
      <point x="162" y="402"/>
      <point x="200" y="402"/>
      <point x="218" y="402" type="curve"/>
      <point x="218" y="431" type="line"/>
      <point x="193" y="429"/>
      <point x="141" y="429"/>
      <point x="114" y="429" type="curve" smooth="yes"/>
      <point x="81" y="429"/>
      <point x="79" y="429"/>
      <point x="18" y="431" type="curve"/>
      <point x="18" y="402" type="line"/>
      <point x="74" y="402"/>
      <point x="84" y="398"/>
      <point x="96" y="367" type="curve" smooth="yes"/>
      <point x="239" y="9" type="line" smooth="yes"/>
      <point x="244" y="-5"/>
      <point x="246" y="-10"/>
      <point x="258" y="-10" type="curve" smooth="yes"/>
      <point x="265" y="-10"/>
      <point x="271" y="-8"/>
      <point x="278" y="9" type="curve" smooth="yes"/>
    </contour>
  </outline>
</glyph>
<glyph name="y" format="2">
  <advance width="516"/>
  <unicode hex="0079"/>
  <outline>
    <contour>
      <point x="109" y="-204" type="curve" smooth="yes"/>
      <point x="165" y="-204"/>
      <point x="206" y="-155"/>
      <point x="232" y="-92" type="curve" smooth="yes"/>
      <point x="405" y="334" type="line" smooth="yes"/>
      <point x="432" y="401"/>
      <point x="479" y="402"/>
      <point x="498" y="402" type="curve"/>
      <point x="498" y="431" type="line"/>
      <point x="469" y="429"/>
      <point x="455" y="429"/>
      <point x="423" y="429" type="curve" smooth="yes"/>
      <point x="400" y="429"/>
      <point x="398" y="429"/>
      <point x="342" y="431" type="curve"/>
      <point x="342" y="402" type="line"/>
      <point x="379" y="400"/>
      <point x="388" y="377"/>
      <point x="388" y="359" type="curve" smooth="yes"/>
      <point x="388" y="350"/>
      <point x="386" y="345"/>
      <point x="382" y="335" type="curve" smooth="yes"/>
      <point x="280" y="83" type="line"/>
      <point x="169" y="355" type="line" smooth="yes"/>
      <point x="163" y="369"/>
      <point x="163" y="375"/>
      <point x="163" y="376" type="curve" smooth="yes"/>
      <point x="163" y="402"/>
      <point x="198" y="402"/>
      <point x="218" y="402" type="curve"/>
      <point x="218" y="431" type="line"/>
      <point x="192" y="429"/>
      <point x="143" y="429"/>
      <point x="115" y="429" type="curve" smooth="yes"/>
      <point x="77" y="429"/>
      <point x="75" y="429"/>
      <point x="18" y="431" type="curve"/>
      <point x="18" y="402" type="line"/>
      <point x="76" y="402"/>
      <point x="84" y="397"/>
      <point x="97" y="366" type="curve" smooth="yes"/>
      <point x="246" y="0" type="line"/>
      <point x="209" y="-90" type="line" smooth="yes"/>
      <point x="175" y="-173"/>
      <point x="135" y="-184"/>
      <point x="109" y="-184" type="curve" smooth="yes"/>
      <point x="78" y="-184"/>
      <point x="59" y="-166"/>
      <point x="59" y="-166" type="curve"/>
      <point x="59" y="-166"/>
      <point x="94" y="-162"/>
      <point x="94" y="-127" type="curve" smooth="yes"/>
      <point x="94" y="-103"/>
      <point x="75" y="-90"/>
      <point x="57" y="-90" type="curve" smooth="yes"/>
      <point x="40" y="-90"/>
      <point x="19" y="-100"/>
      <point x="19" y="-129" type="curve" smooth="yes"/>
      <point x="19" y="-167"/>
      <point x="56" y="-204"/>
    </contour>
  </outline>
</glyph>
<glyph name="acute" format="2">
  <advance width="489"/>
  <unicode hex="00B4"/>
  <outline>
    <contour>
      <point x="367" y="635" type="line" smooth="yes"/>
      <point x="383" y="648"/>
      <point x="383" y="659"/>
      <point x="383" y="664" type="curve" smooth="yes"/>
      <point x="383" y="682"/>
      <point x="366" y="697"/>
      <point x="349" y="697" type="curve" smooth="yes"/>
      <point x="335" y="697"/>
      <point x="329" y="690"/>
      <point x="321" y="679" type="curve" smooth="yes"/>
      <point x="202" y="527" type="line"/>
      <point x="207" y="521"/>
      <point x="212" y="516"/>
      <point x="218" y="511" type="curve"/>
    </contour>
  </outline>
</glyph>
<glyph name="Oslash" format="2">
  <advance width="761"/>
  <unicode hex="00D8"/>
  <outline>
    <contour>
      <point x="655" y="726" type="line"/>
      <point x="638" y="738" type="line"/>
      <point x="569" y="637" type="line"/>
      <point x="541" y="660"/>
      <point x="472" y="704"/>
      <point x="381" y="704" type="curve" smooth="yes"/>
      <point x="203" y="704"/>
      <point x="54" y="544"/>
      <point x="54" y="339" type="curve" smooth="yes"/>
      <point x="54" y="237"/>
      <point x="94" y="131"/>
      <point x="175" y="60" type="curve"/>
      <point x="106" y="-43" type="line"/>
      <point x="123" y="-55" type="line"/>
      <point x="191" y="45" type="line"/>
      <point x="264" y="-9"/>
      <point x="332" y="-21"/>
      <point x="380" y="-21" type="curve" smooth="yes"/>
      <point x="559" y="-21"/>
      <point x="707" y="138"/>
      <point x="707" y="339" type="curve" smooth="yes"/>
      <point x="707" y="515"/>
      <point x="599" y="612"/>
      <point x="586" y="622" type="curve"/>
    </contour>
    <contour>
      <point x="381" y="-1" type="curve" smooth="yes"/>
      <point x="288" y="-1"/>
      <point x="233" y="56"/>
      <point x="213" y="76" type="curve"/>
      <point x="562" y="588" type="line"/>
      <point x="616" y="513"/>
      <point x="626" y="418"/>
      <point x="626" y="340" type="curve" smooth="yes"/>
      <point x="626.0" y="197.22436"/>
      <point x="586.0865580008" y="113.915716918"/>
      <point x="537.8465309664983" y="65.4562338077686" type="curve" smooth="yes"/>
      <point x="478.64295910040005" y="5.983329929200046"/>
      <point x="406.89794000000006" y="-0.9999999999999742"/>
    </contour>
    <contour>
      <point x="199" y="95" type="line"/>
      <point x="153" y="157"/>
      <point x="135" y="235"/>
      <point x="135" y="340" type="curve" smooth="yes"/>
      <point x="135" y="670"/>
      <point x="345" y="684"/>
      <point x="380" y="684" type="curve" smooth="yes"/>
      <point x="470" y="684"/>
      <point x="523" y="631"/>
      <point x="547" y="607" type="curve"/>
    </contour>
  </outline>
</glyph>
<glyph name="oslash" format="2">
  <advance width="489"/>
  <unicode hex="00F8"/>
  <outline>
    <contour>
      <point x="76" y="-102" type="line"/>
      <point x="143" y="17" type="line"/>
      <point x="173" y="0"/>
      <point x="210" y="-10"/>
      <point x="244" y="-10" type="curve" smooth="yes"/>
      <point x="358" y="-10"/>
      <point x="454" y="87"/>
      <point x="454" y="214" type="curve" smooth="yes"/>
      <point x="454" y="294"/>
      <point x="417" y="363"/>
      <point x="364" y="405" type="curve"/>
      <point x="430" y="522" type="line"/>
      <point x="413" y="533" type="line"/>
      <point x="347" y="416" type="line"/>
      <point x="316" y="436"/>
      <point x="280" y="446"/>
      <point x="245" y="446" type="curve" smooth="yes"/>
      <point x="129" y="446"/>
      <point x="35" y="341"/>
      <point x="35" y="214" type="curve" smooth="yes"/>
      <point x="35" y="148"/>
      <point x="62" y="75"/>
      <point x="127" y="29" type="curve"/>
      <point x="59" y="-92" type="line"/>
    </contour>
    <contour>
      <point x="244" y="10" type="curve" smooth="yes"/>
      <point x="196" y="10"/>
      <point x="161" y="39"/>
      <point x="158" y="41" type="curve"/>
      <point x="347" y="375" type="line"/>
      <point x="382" y="332"/>
      <point x="389" y="275"/>
      <point x="389" y="214" type="curve" smooth="yes"/>
      <point x="389" y="177"/>
      <point x="388" y="121"/>
      <point x="360" y="75" type="curve" smooth="yes"/>
      <point x="337" y="38"/>
      <point x="295" y="10"/>
    </contour>
    <contour>
      <point x="143" y="57" type="line"/>
      <point x="102" y="102"/>
      <point x="100" y="172"/>
      <point x="100" y="214" type="curve" smooth="yes"/>
      <point x="100" y="252"/>
      <point x="102" y="312"/>
      <point x="130" y="358" type="curve" smooth="yes"/>
      <point x="159" y="406"/>
      <point x="205" y="426"/>
      <point x="244" y="426" type="curve" smooth="yes"/>
      <point x="282" y="426"/>
      <point x="313" y="408"/>
      <point x="332" y="392" type="curve"/>
    </contour>
  </outline>
</glyph>
<glyph name="tilde" format="2">
  <advance width="489"/>
  <unicode hex="02DC"/>
  <outline>
    <contour>
      <point x="96" y="573" type="line"/>
      <point x="125" y="602"/>
      <point x="146" y="622"/>
      <point x="178" y="622" type="curve" smooth="yes"/>
      <point x="193" y="622"/>
      <point x="207" y="619"/>
      <point x="238" y="598" type="curve"/>
      <point x="258" y="586"/>
      <point x="278" y="573"/>
      <point x="301" y="573" type="curve" smooth="yes"/>
      <point x="338" y="573"/>
      <point x="360" y="598"/>
      <point x="407" y="650" type="curve"/>
      <point x="393" y="664" type="line"/>
      <point x="364" y="635"/>
      <point x="343" y="615"/>
      <point x="311" y="615" type="curve" smooth="yes"/>
      <point x="296" y="615"/>
      <point x="282" y="618"/>
      <point x="251" y="639" type="curve"/>
      <point x="231" y="651"/>
      <point x="211" y="664"/>
      <point x="188" y="664" type="curve" smooth="yes"/>
      <point x="151" y="664"/>
      <point x="129" y="639"/>
      <point x="82" y="587" type="curve"/>
    </contour>
  </outline>
</glyph>
<glyph name="hungarumlaut" format="2">
  <advance width="489"/>
  <unicode hex="02DD"/>
  <outline>
    <contour>
      <point x="236" y="640" type="line" smooth="yes"/>
      <point x="247" y="655"/>
      <point x="247" y="661"/>
      <point x="247" y="666" type="curve" smooth="yes"/>
      <point x="247" y="688"/>
      <point x="225" y="699"/>
      <point x="212" y="699" type="curve" smooth="yes"/>
      <point x="191" y="699"/>
      <point x="185" y="682"/>
      <point x="181" y="671" type="curve" smooth="yes"/>
      <point x="127" y="524" type="line"/>
      <point x="134" y="520"/>
      <point x="139" y="517"/>
      <point x="145" y="514" type="curve"/>
    </contour>
    <contour>
      <point x="399" y="640" type="line" smooth="yes"/>
      <point x="410" y="655"/>
      <point x="410" y="661"/>
      <point x="410" y="666" type="curve" smooth="yes"/>
      <point x="410" y="688"/>
      <point x="388" y="699"/>
      <point x="375" y="699" type="curve" smooth="yes"/>
      <point x="354" y="699"/>
      <point x="348" y="682"/>
      <point x="344" y="671" type="curve" smooth="yes"/>
      <point x="290" y="524" type="line"/>
      <point x="297" y="520"/>
      <point x="302" y="517"/>
      <point x="308" y="514" type="curve"/>
    </contour>
  </outline>
</glyph>
<glyph name="Gamma" format="2">
  <advance width="611"/>
  <unicode hex="0393"/>
  <outline>
    <contour>
      <point x="41" y="0" type="line"/>
      <point x="65" y="2"/>
      <point x="154" y="2"/>
      <point x="184" y="2" type="curve" smooth="yes"/>
      <point x="219" y="2"/>
      <point x="307" y="2"/>
      <point x="336" y="0" type="curve"/>
      <point x="336" y="29" type="line"/>
      <point x="306" y="29" type="line" smooth="yes"/>
      <point x="219" y="29"/>
      <point x="217" y="41"/>
      <point x="217" y="77" type="curve" smooth="yes"/>
      <point x="217" y="612" type="line" smooth="yes"/>
      <point x="217" y="645"/>
      <point x="219" y="652"/>
      <point x="263" y="652" type="curve" smooth="yes"/>
      <point x="370" y="652" type="line" smooth="yes"/>
      <point x="508" y="652"/>
      <point x="534" y="598"/>
      <point x="548" y="458" type="curve"/>
      <point x="570" y="458" type="line"/>
      <point x="544" y="681" type="line"/>
      <point x="41" y="681" type="line"/>
      <point x="41" y="652" type="line"/>
      <point x="61" y="652" type="line" smooth="yes"/>
      <point x="133" y="652"/>
      <point x="136" y="642"/>
      <point x="136" y="605" type="curve" smooth="yes"/>
      <point x="136" y="76" type="line" smooth="yes"/>
      <point x="136" y="39"/>
      <point x="133" y="29"/>
      <point x="61" y="29" type="curve" smooth="yes"/>
      <point x="41" y="29" type="line"/>
    </contour>
  </outline>
</glyph>
<glyph name="Theta" format="2">
  <advance width="761"/>
  <unicode hex="0398"/>
  <outline>
    <contour>
      <point x="707" y="339" type="curve" smooth="yes"/>
      <point x="707" y="546"/>
      <point x="555" y="704"/>
      <point x="381" y="704" type="curve" smooth="yes"/>
      <point x="203" y="704"/>
      <point x="54" y="544"/>
      <point x="54" y="339" type="curve" smooth="yes"/>
      <point x="54" y="136"/>
      <point x="205" y="-21"/>
      <point x="380" y="-21" type="curve" smooth="yes"/>
      <point x="559" y="-21"/>
      <point x="707" y="138"/>
    </contour>
    <contour>
      <point x="381" y="0" type="curve" smooth="yes"/>
      <point x="277" y="0"/>
      <point x="142" y="94"/>
      <point x="142" y="340" type="curve" smooth="yes"/>
      <point x="142" y="588"/>
      <point x="278" y="684"/>
      <point x="380" y="684" type="curve" smooth="yes"/>
      <point x="487" y="684"/>
      <point x="619" y="585"/>
      <point x="619" y="340" type="curve" smooth="yes"/>
      <point x="619" y="90"/>
      <point x="481" y="0"/>
    </contour>
    <contour>
      <point x="564" y="411" type="line"/>
      <point x="542" y="411" type="line"/>
      <point x="542" y="377" type="line"/>
      <point x="219" y="377" type="line"/>
      <point x="219" y="411" type="line"/>
      <point x="197" y="411" type="line"/>
      <point x="197" y="274" type="line"/>
      <point x="219" y="274" type="line"/>
      <point x="219" y="308" type="line"/>
      <point x="542" y="308" type="line"/>
      <point x="542" y="274" type="line"/>
      <point x="564" y="274" type="line"/>
    </contour>
  </outline>
</glyph>
<glyph name="Lambda" format="2">
  <advance width="679"/>
  <unicode hex="039B"/>
  <outline>
    <contour>
      <point x="361" y="693" type="line" smooth="yes"/>
      <point x="355" y="713"/>
      <point x="350" y="714"/>
      <point x="339" y="714" type="curve" smooth="yes"/>
      <point x="330" y="714"/>
      <point x="324" y="712"/>
      <point x="319" y="696" type="curve" smooth="yes"/>
      <point x="125" y="96" type="line" smooth="yes"/>
      <point x="106" y="38"/>
      <point x="65" y="30"/>
      <point x="31" y="29" type="curve"/>
      <point x="31" y="0" type="line"/>
      <point x="74" y="2"/>
      <point x="76" y="2"/>
      <point x="119" y="2" type="curve" smooth="yes"/>
      <point x="146" y="2"/>
      <point x="195" y="2"/>
      <point x="220" y="0" type="curve"/>
      <point x="220" y="29" type="line"/>
      <point x="169" y="30"/>
      <point x="150" y="58"/>
      <point x="150" y="80" type="curve" smooth="yes"/>
      <point x="150" y="84"/>
      <point x="150" y="87"/>
      <point x="155" y="102" type="curve" smooth="yes"/>
      <point x="311" y="583" type="line"/>
      <point x="475" y="77" type="line" smooth="yes"/>
      <point x="480" y="63"/>
      <point x="480" y="61"/>
      <point x="480" y="59" type="curve" smooth="yes"/>
      <point x="480" y="29"/>
      <point x="428" y="29"/>
      <point x="403" y="29" type="curve"/>
      <point x="403" y="0" type="line"/>
      <point x="426" y="2"/>
      <point x="503" y="2"/>
      <point x="531" y="2" type="curve" smooth="yes"/>
      <point x="560" y="2"/>
      <point x="622" y="2"/>
      <point x="648" y="0" type="curve"/>
      <point x="648" y="29" type="line"/>
      <point x="594" y="29"/>
      <point x="575" y="29"/>
      <point x="563" y="67" type="curve" smooth="yes"/>
    </contour>
  </outline>
</glyph>
<glyph name="Xi" format="2">
  <advance width="652"/>
  <unicode hex="039E"/>
  <outline>
    <contour>
      <point x="598" y="678" type="line"/>
      <point x="54" y="678" type="line"/>
      <point x="46" y="528" type="line"/>
      <point x="68" y="528" type="line"/>
      <point x="69" y="543"/>
      <point x="71" y="592"/>
      <point x="80" y="606" type="curve"/>
      <point x="86" y="614"/>
      <point x="145" y="614"/>
      <point x="155" y="614" type="curve" smooth="yes"/>
      <point x="497" y="614" type="line" smooth="yes"/>
      <point x="521" y="614"/>
      <point x="567" y="614"/>
      <point x="573" y="604" type="curve"/>
      <point x="581" y="589"/>
      <point x="584" y="539"/>
      <point x="584" y="528" type="curve"/>
      <point x="606" y="528" type="line"/>
    </contour>
    <contour>
      <point x="49" y="0" type="line"/>
      <point x="603" y="0" type="line"/>
      <point x="611" y="161" type="line"/>
      <point x="589" y="161" type="line"/>
      <point x="587" y="122"/>
      <point x="585" y="89"/>
      <point x="578" y="75" type="curve"/>
      <point x="571" y="64"/>
      <point x="523" y="64"/>
      <point x="498" y="64" type="curve" smooth="yes"/>
      <point x="154" y="64" type="line" smooth="yes"/>
      <point x="136" y="64"/>
      <point x="81" y="64"/>
      <point x="75" y="74" type="curve" smooth="yes"/>
      <point x="67" y="87"/>
      <point x="65" y="122"/>
      <point x="63" y="161" type="curve"/>
      <point x="41" y="161" type="line"/>
    </contour>
    <contour>
      <point x="516" y="432" type="line"/>
      <point x="494" y="432" type="line"/>
      <point x="494" y="385" type="line"/>
      <point x="158" y="385" type="line"/>
      <point x="158" y="432" type="line"/>
      <point x="136" y="432" type="line"/>
      <point x="136" y="274" type="line"/>
      <point x="158" y="274" type="line"/>
      <point x="158" y="321" type="line"/>
      <point x="494" y="321" type="line"/>
      <point x="494" y="274" type="line"/>
      <point x="516" y="274" type="line"/>
    </contour>
  </outline>
</glyph>
<glyph name="Pi" format="2">
  <advance width="734"/>
  <unicode hex="03A0"/>
  <outline>
    <contour>
      <point x="597" y="605" type="line" smooth="yes"/>
      <point x="597" y="642"/>
      <point x="600" y="652"/>
      <point x="672" y="652" type="curve" smooth="yes"/>
      <point x="692" y="652" type="line"/>
      <point x="692" y="681" type="line"/>
      <point x="41" y="681" type="line"/>
      <point x="41" y="652" type="line"/>
      <point x="61" y="652" type="line" smooth="yes"/>
      <point x="133" y="652"/>
      <point x="136" y="642"/>
      <point x="136" y="605" type="curve" smooth="yes"/>
      <point x="136" y="76" type="line" smooth="yes"/>
      <point x="136" y="39"/>
      <point x="133" y="29"/>
      <point x="61" y="29" type="curve" smooth="yes"/>
      <point x="41" y="29" type="line"/>
      <point x="41" y="0" type="line"/>
      <point x="65" y="2"/>
      <point x="147" y="2"/>
      <point x="176" y="2" type="curve" smooth="yes"/>
      <point x="206" y="2"/>
      <point x="288" y="2"/>
      <point x="312" y="0" type="curve"/>
      <point x="312" y="29" type="line"/>
      <point x="292" y="29" type="line" smooth="yes"/>
      <point x="220" y="29"/>
      <point x="217" y="39"/>
      <point x="217" y="76" type="curve" smooth="yes"/>
      <point x="217" y="652" type="line"/>
      <point x="516" y="652" type="line"/>
      <point x="516" y="76" type="line" smooth="yes"/>
      <point x="516" y="39"/>
      <point x="513" y="29"/>
      <point x="441" y="29" type="curve" smooth="yes"/>
      <point x="421" y="29" type="line"/>
      <point x="421" y="0" type="line"/>
      <point x="445" y="2"/>
      <point x="527" y="2"/>
      <point x="556" y="2" type="curve" smooth="yes"/>
      <point x="586" y="2"/>
      <point x="668" y="2"/>
      <point x="692" y="0" type="curve"/>
      <point x="692" y="29" type="line"/>
      <point x="672" y="29" type="line" smooth="yes"/>
      <point x="600" y="29"/>
      <point x="597" y="39"/>
      <point x="597" y="76" type="curve" smooth="yes"/>
    </contour>
  </outline>
</glyph>
<glyph name="Sigma" format="2">
  <advance width="707"/>
  <unicode hex="03A3"/>
  <outline>
    <contour>
      <point x="354" y="325" type="line" smooth="yes"/>
      <point x="362" y="335"/>
      <point x="364" y="337"/>
      <point x="364" y="342" type="curve" smooth="yes"/>
      <point x="364" y="344"/>
      <point x="364" y="346"/>
      <point x="358" y="354" type="curve"/>
      <point x="156" y="654" type="line"/>
      <point x="392" y="654" type="line" smooth="yes"/>
      <point x="560" y="654"/>
      <point x="611" y="618"/>
      <point x="630" y="460" type="curve"/>
      <point x="652" y="460" type="line"/>
      <point x="626" y="683" type="line"/>
      <point x="79" y="683" type="line" smooth="yes"/>
      <point x="55" y="683"/>
      <point x="54" y="683"/>
      <point x="54" y="660" type="curve"/>
      <point x="297" y="300" type="line"/>
      <point x="65" y="26" type="line" smooth="yes"/>
      <point x="57" y="17"/>
      <point x="55" y="14"/>
      <point x="55" y="10" type="curve" smooth="yes"/>
      <point x="55" y="0"/>
      <point x="63" y="0"/>
      <point x="79" y="0" type="curve" smooth="yes"/>
      <point x="626" y="0" type="line"/>
      <point x="652" y="233" type="line"/>
      <point x="630" y="233" type="line"/>
      <point x="612" y="68"/>
      <point x="549" y="39"/>
      <point x="389" y="39" type="curve" smooth="yes"/>
      <point x="112" y="39" type="line"/>
    </contour>
  </outline>
</glyph>
<glyph name="Upsilon" format="2">
  <advance width="761"/>
  <unicode hex="03A5"/>
  <outline>
    <contour>
      <point x="221" y="0" type="line"/>
      <point x="250" y="2"/>
      <point x="345" y="2"/>
      <point x="380" y="2" type="curve" smooth="yes"/>
      <point x="415" y="2"/>
      <point x="511" y="2"/>
      <point x="540" y="0" type="curve"/>
      <point x="540" y="29" type="line"/>
      <point x="530" y="29"/>
      <point x="520" y="29"/>
      <point x="510" y="29" type="curve" smooth="yes"/>
      <point x="423" y="29"/>
      <point x="421" y="41"/>
      <point x="421" y="77" type="curve" smooth="yes"/>
      <point x="421" y="352" type="line" smooth="yes"/>
      <point x="421" y="410"/>
      <point x="432" y="634"/>
      <point x="580" y="634" type="curve" smooth="yes"/>
      <point x="629" y="634"/>
      <point x="674" y="605"/>
      <point x="680" y="552" type="curve" smooth="yes"/>
      <point x="681" y="541"/>
      <point x="682" y="537"/>
      <point x="693" y="537" type="curve" smooth="yes"/>
      <point x="706" y="537"/>
      <point x="707" y="542"/>
      <point x="707" y="553" type="curve" smooth="yes"/>
      <point x="707" y="606"/>
      <point x="672" y="704"/>
      <point x="579" y="704" type="curve" smooth="yes"/>
      <point x="477" y="704"/>
      <point x="404" y="615"/>
      <point x="381" y="458" type="curve"/>
      <point x="380" y="458" type="line"/>
      <point x="374" y="499"/>
      <point x="341" y="704"/>
      <point x="182" y="704" type="curve" smooth="yes"/>
      <point x="89" y="704"/>
      <point x="54" y="605"/>
      <point x="54" y="553" type="curve" smooth="yes"/>
      <point x="54" y="542"/>
      <point x="55" y="537"/>
      <point x="68" y="537" type="curve" smooth="yes"/>
      <point x="79" y="537"/>
      <point x="80" y="541"/>
      <point x="81" y="553" type="curve" smooth="yes"/>
      <point x="87" y="602"/>
      <point x="129" y="634"/>
      <point x="181" y="634" type="curve" smooth="yes"/>
      <point x="333" y="634"/>
      <point x="340" y="399"/>
      <point x="340" y="352" type="curve" smooth="yes"/>
      <point x="340" y="77" type="line" smooth="yes"/>
      <point x="340" y="41"/>
      <point x="338" y="29"/>
      <point x="251" y="29" type="curve" smooth="yes"/>
      <point x="241" y="29"/>
      <point x="231" y="29"/>
      <point x="221" y="29" type="curve"/>
    </contour>
  </outline>
</glyph>
<glyph name="Phi" format="2">
  <advance width="707"/>
  <unicode hex="03A6"/>
  <outline>
    <contour>
      <point x="389" y="132" type="line"/>
      <point x="541" y="145"/>
      <point x="652" y="238"/>
      <point x="652" y="341" type="curve" smooth="yes"/>
      <point x="652" y="448"/>
      <point x="538" y="538"/>
      <point x="389" y="551" type="curve"/>
      <point x="389" y="606" type="line" smooth="yes"/>
      <point x="389" y="642"/>
      <point x="391" y="654"/>
      <point x="478" y="654" type="curve" smooth="yes"/>
      <point x="508" y="654" type="line"/>
      <point x="508" y="683" type="line"/>
      <point x="481" y="681"/>
      <point x="384" y="681"/>
      <point x="351" y="681" type="curve" smooth="yes"/>
      <point x="318" y="681"/>
      <point x="221" y="681"/>
      <point x="194" y="683" type="curve"/>
      <point x="194" y="654" type="line"/>
      <point x="224" y="654" type="line" smooth="yes"/>
      <point x="311" y="654"/>
      <point x="313" y="642"/>
      <point x="313" y="606" type="curve" smooth="yes"/>
      <point x="313" y="550" type="line"/>
      <point x="158" y="536"/>
      <point x="54" y="441"/>
      <point x="54" y="342" type="curve" smooth="yes"/>
      <point x="54" y="239"/>
      <point x="161" y="147"/>
      <point x="313" y="133" type="curve"/>
      <point x="313" y="77" type="line" smooth="yes"/>
      <point x="313" y="41"/>
      <point x="311" y="29"/>
      <point x="224" y="29" type="curve" smooth="yes"/>
      <point x="194" y="29" type="line"/>
      <point x="194" y="0" type="line"/>
      <point x="221" y="2"/>
      <point x="318" y="2"/>
      <point x="351" y="2" type="curve" smooth="yes"/>
      <point x="384" y="2"/>
      <point x="481" y="2"/>
      <point x="508" y="0" type="curve"/>
      <point x="508" y="29" type="line"/>
      <point x="478" y="29" type="line" smooth="yes"/>
      <point x="391" y="29"/>
      <point x="389" y="41"/>
      <point x="389" y="77" type="curve" smooth="yes"/>
    </contour>
    <contour>
      <point x="313" y="154" type="line"/>
      <point x="204" y="168"/>
      <point x="145" y="232"/>
      <point x="145" y="341" type="curve" smooth="yes"/>
      <point x="145" y="451"/>
      <point x="203" y="515"/>
      <point x="313" y="529" type="curve"/>
    </contour>
    <contour>
      <point x="389" y="530" type="line"/>
      <point x="506" y="515"/>
      <point x="561" y="448"/>
      <point x="561" y="342" type="curve" smooth="yes"/>
      <point x="561" y="238"/>
      <point x="510" y="169"/>
      <point x="389" y="153" type="curve"/>
    </contour>
  </outline>
</glyph>
<glyph name="Psi" format="2">
  <advance width="761"/>
  <unicode hex="03A8"/>
  <outline>
    <contour>
      <point x="416" y="606" type="line" smooth="yes"/>
      <point x="416" y="642"/>
      <point x="418" y="654"/>
      <point x="505" y="654" type="curve" smooth="yes"/>
      <point x="535" y="654" type="line"/>
      <point x="535" y="683" type="line"/>
      <point x="508" y="681"/>
      <point x="411" y="681"/>
      <point x="378" y="681" type="curve" smooth="yes"/>
      <point x="345" y="681"/>
      <point x="248" y="681"/>
      <point x="221" y="683" type="curve"/>
      <point x="221" y="654" type="line"/>
      <point x="251" y="654" type="line" smooth="yes"/>
      <point x="338" y="654"/>
      <point x="340" y="642"/>
      <point x="340" y="606" type="curve" smooth="yes"/>
      <point x="340" y="156" type="line"/>
      <point x="204" y="189"/>
      <point x="201" y="351"/>
      <point x="201" y="414" type="curve" smooth="yes"/>
      <point x="200" y="514"/>
      <point x="170" y="555"/>
      <point x="111" y="555" type="curve" smooth="yes"/>
      <point x="79" y="555" type="line" smooth="yes"/>
      <point x="63" y="555"/>
      <point x="55" y="555"/>
      <point x="55" y="545" type="curve" smooth="yes"/>
      <point x="55" y="537"/>
      <point x="61" y="536"/>
      <point x="65" y="535" type="curve"/>
      <point x="111" y="528"/>
      <point x="124" y="486"/>
      <point x="125" y="397" type="curve" smooth="yes"/>
      <point x="126" y="254"/>
      <point x="199" y="152"/>
      <point x="340" y="133" type="curve"/>
      <point x="340" y="77" type="line" smooth="yes"/>
      <point x="340" y="41"/>
      <point x="338" y="29"/>
      <point x="251" y="29" type="curve" smooth="yes"/>
      <point x="221" y="29" type="line"/>
      <point x="221" y="0" type="line"/>
      <point x="248" y="2"/>
      <point x="345" y="2"/>
      <point x="378" y="2" type="curve" smooth="yes"/>
      <point x="411" y="2"/>
      <point x="508" y="2"/>
      <point x="535" y="0" type="curve"/>
      <point x="535" y="29" type="line"/>
      <point x="505" y="29" type="line" smooth="yes"/>
      <point x="418" y="29"/>
      <point x="416" y="41"/>
      <point x="416" y="77" type="curve" smooth="yes"/>
      <point x="416" y="133" type="line"/>
      <point x="611" y="157"/>
      <point x="635" y="315"/>
      <point x="636" y="420" type="curve" smooth="yes"/>
      <point x="636" y="466"/>
      <point x="646" y="528"/>
      <point x="695" y="535" type="curve" smooth="yes"/>
      <point x="701" y="536"/>
      <point x="707" y="537"/>
      <point x="707" y="545" type="curve" smooth="yes"/>
      <point x="707" y="555"/>
      <point x="699" y="555"/>
      <point x="683" y="555" type="curve" smooth="yes"/>
      <point x="650" y="555" type="line" smooth="yes"/>
      <point x="603" y="555"/>
      <point x="561" y="538"/>
      <point x="560" y="401" type="curve" smooth="yes"/>
      <point x="559" y="294"/>
      <point x="529" y="182"/>
      <point x="416" y="155" type="curve"/>
    </contour>
  </outline>
</glyph>
<glyph name="quoteright" format="2">
  <advance width="271"/>
  <unicode hex="2019"/>
  <outline>
    <contour>
      <point x="176" y="617" type="curve"/>
      <point x="177" y="610"/>
      <point x="178" y="605"/>
      <point x="178" y="592" type="curve" smooth="yes"/>
      <point x="178" y="578"/>
      <point x="178" y="497"/>
      <point x="109" y="428" type="curve" smooth="yes"/>
      <point x="100" y="419"/>
      <point x="100" y="417"/>
      <point x="100" y="414" type="curve" smooth="yes"/>
      <point x="100" y="409"/>
      <point x="105" y="404"/>
      <point x="110" y="404" type="curve" smooth="yes"/>
      <point x="119" y="404"/>
      <point x="198" y="478"/>
      <point x="198" y="592" type="curve" smooth="yes"/>
      <point x="198" y="654"/>
      <point x="175" y="694"/>
      <point x="135" y="694" type="curve" smooth="yes"/>
      <point x="106" y="694"/>
      <point x="87" y="672"/>
      <point x="87" y="646" type="curve" smooth="yes"/>
      <point x="87" y="619"/>
      <point x="106" y="597"/>
      <point x="136" y="597" type="curve" smooth="yes"/>
      <point x="163" y="597"/>
      <point x="176" y="616"/>
    </contour>
  </outline>
</glyph>
<glyph name="Omega" format="2">
  <advance width="707"/>
  <unicode hex="2126"/>
  <outline>
    <contour>
      <point x="662" y="156" type="line"/>
      <point x="640" y="156" type="line"/>
      <point x="635" y="130"/>
      <point x="630" y="104"/>
      <point x="622" y="83" type="curve"/>
      <point x="617" y="67"/>
      <point x="614" y="59"/>
      <point x="556" y="59" type="curve" smooth="yes"/>
      <point x="477" y="59" type="line"/>
      <point x="489" y="115"/>
      <point x="518" y="163"/>
      <point x="559" y="225" type="curve" smooth="yes"/>
      <point x="606" y="298"/>
      <point x="652" y="371"/>
      <point x="652" y="454" type="curve" smooth="yes"/>
      <point x="652" y="592"/>
      <point x="520" y="704"/>
      <point x="353" y="704" type="curve" smooth="yes"/>
      <point x="185" y="704"/>
      <point x="54" y="591"/>
      <point x="54" y="454" type="curve" smooth="yes"/>
      <point x="54" y="372"/>
      <point x="99" y="300"/>
      <point x="146" y="227" type="curve" smooth="yes"/>
      <point x="188" y="162"/>
      <point x="218" y="115"/>
      <point x="229" y="59" type="curve"/>
      <point x="150" y="59" type="line" smooth="yes"/>
      <point x="92" y="59"/>
      <point x="89" y="67"/>
      <point x="84" y="82" type="curve" smooth="yes"/>
      <point x="76" y="103"/>
      <point x="71" y="132"/>
      <point x="66" y="156" type="curve"/>
      <point x="44" y="156" type="line"/>
      <point x="76" y="0" type="line"/>
      <point x="231" y="0" type="line" smooth="yes"/>
      <point x="253" y="0"/>
      <point x="255" y="0"/>
      <point x="255" y="18" type="curve" smooth="yes"/>
      <point x="255" y="89"/>
      <point x="223" y="176"/>
      <point x="203" y="227" type="curve" smooth="yes"/>
      <point x="174" y="306"/>
      <point x="147" y="379"/>
      <point x="147" y="455" type="curve" smooth="yes"/>
      <point x="147" y="609"/>
      <point x="254" y="684"/>
      <point x="353" y="684" type="curve" smooth="yes"/>
      <point x="452" y="684"/>
      <point x="559" y="609"/>
      <point x="559" y="455" type="curve" smooth="yes"/>
      <point x="559" y="379"/>
      <point x="531" y="304"/>
      <point x="503" y="230" type="curve" smooth="yes"/>
      <point x="486" y="182"/>
      <point x="451" y="90"/>
      <point x="451" y="19" type="curve" smooth="yes"/>
      <point x="451" y="0"/>
      <point x="454" y="0"/>
      <point x="476" y="0" type="curve" smooth="yes"/>
      <point x="630" y="0" type="line"/>
    </contour>
  </outline>
</glyph>
<glyph name="Delta" format="2">
  <advance width="815"/>
  <unicode hex="2206"/>
  <outline>
    <contour>
      <point x="431" y="696" type="line" smooth="yes"/>
      <point x="424" y="710"/>
      <point x="422" y="714"/>
      <point x="408" y="714" type="curve" smooth="yes"/>
      <point x="393" y="714"/>
      <point x="391" y="710"/>
      <point x="384" y="696" type="curve" smooth="yes"/>
      <point x="50" y="20" type="line"/>
      <point x="48" y="17"/>
      <point x="46" y="11"/>
      <point x="46" y="7" type="curve" smooth="yes"/>
      <point x="46" y="1"/>
      <point x="47" y="0"/>
      <point x="67" y="0" type="curve" smooth="yes"/>
      <point x="748" y="0" type="line" smooth="yes"/>
      <point x="768" y="0"/>
      <point x="769" y="1"/>
      <point x="769" y="7" type="curve" smooth="yes"/>
      <point x="769" y="11"/>
      <point x="767" y="17"/>
      <point x="765" y="20" type="curve"/>
    </contour>
    <contour>
      <point x="377" y="622" type="line"/>
      <point x="650" y="69" type="line"/>
      <point x="105" y="69" type="line"/>
    </contour>
  </outline>
</glyph>
<glyph name="suppress" format="2">
  <advance width="271"/>
  <outline>
    <contour>
      <point x="255" y="365" type="line"/>
      <point x="244" y="392" type="line"/>
      <point x="26" y="308" type="line"/>
      <point x="37" y="281" type="line"/>
    </contour>
  </outline>
</glyph>
